<?xml version="1.0" standalone="no"?>
<!DOCTYPE svg PUBLIC "-//W3C//DTD SVG 20010904//EN"
 "http://www.w3.org/TR/2001/REC-SVG-20010904/DTD/svg10.dtd">
<svg version="1.0" xmlns="http://www.w3.org/2000/svg"
 width="1191.000000pt" height="842.000000pt" viewBox="0 0 1191.000000 842.000000"
 preserveAspectRatio="xMidYMid meet">

<g transform="translate(0.000000,842.000000) scale(0.100000,-0.100000)"
fill="#000000" stroke="none">
<path d="M3227 5109 c-4 -13 5 -18 46 -22 58 -7 94 -28 107 -63 14 -36 13
-988 -1 -1037 -12 -43 -52 -67 -112 -67 -38 0 -48 -6 -40 -26 4 -12 82 -14
478 -14 l473 0 46 143 c56 179 60 193 48 201 -6 3 -29 -33 -52 -80 -52 -109
-108 -167 -181 -188 -60 -18 -379 -23 -422 -7 -45 17 -47 44 -47 553 0 517 1
529 53 563 14 9 51 19 82 22 30 3 58 10 61 14 13 22 -61 29 -291 27 -219 -2
-244 -4 -248 -19z"/>
<path d="M4188 5122 c-33 -7 -19 -29 21 -36 51 -8 88 -45 129 -132 17 -38 133
-301 256 -584 127 -292 230 -516 238 -518 9 -2 41 65 103 215 304 742 366 889
396 934 23 33 50 57 81 73 34 17 44 27 37 37 -12 20 -325 23 -333 3 -6 -16 -3
-17 47 -34 50 -16 71 -57 64 -122 -3 -26 -42 -134 -85 -240 -44 -106 -114
-278 -157 -383 -43 -104 -80 -194 -82 -198 -9 -15 -358 777 -368 834 -10 57
15 96 71 111 31 9 44 17 42 28 -3 13 -34 15 -223 16 -121 0 -228 -2 -237 -4z"/>
<path d="M5623 5123 c-24 -8 0 -33 31 -33 51 0 99 -30 113 -70 15 -45 18 -967
3 -1021 -15 -52 -41 -72 -106 -77 -44 -4 -54 -8 -52 -21 3 -14 27 -16 196 -19
183 -2 192 -2 192 17 0 15 -9 19 -50 23 -59 6 -86 27 -101 77 -6 23 -9 192 -7
474 l3 438 235 -513 c179 -390 240 -513 253 -513 16 0 159 298 422 880 32 72
62 135 67 140 15 16 5 -894 -10 -928 -14 -33 -65 -57 -122 -57 -33 0 -40 -3
-40 -20 0 -19 7 -20 260 -20 253 0 260 1 260 20 0 16 -7 20 -34 20 -54 0 -95
19 -114 54 -15 28 -17 80 -20 511 -4 520 -2 540 49 578 15 10 47 22 73 24 28
4 46 11 46 18 0 20 -14 21 -168 21 l-142 -1 -211 -455 c-116 -250 -217 -471
-226 -490 l-15 -35 -57 115 c-31 63 -91 187 -133 275 -236 490 -280 580 -291
587 -12 8 -281 8 -304 1z"/>
<path d="M7350 5122 c-5 -2 -10 -9 -10 -17 0 -8 20 -15 52 -19 118 -16 113 9
113 -586 0 -373 -3 -502 -12 -523 -15 -32 -66 -57 -118 -57 -28 0 -35 -4 -35
-20 0 -19 7 -20 255 -20 248 0 255 1 255 20 0 17 -7 20 -40 20 -23 0 -53 6
-69 14 -50 26 -55 52 -59 297 -3 201 -2 228 13 242 15 15 49 17 308 17 249 0
296 -2 315 -16 22 -15 22 -19 22 -217 -1 -298 -10 -323 -113 -334 -47 -5 -57
-9 -57 -24 0 -18 13 -19 255 -19 248 0 255 1 255 20 0 17 -7 20 -40 20 -52 0
-93 21 -108 55 -17 37 -18 1021 -2 1057 16 33 43 48 101 55 37 4 49 10 49 23
0 15 -23 16 -255 17 -234 0 -255 -1 -255 -17 0 -13 12 -19 51 -23 70 -9 94
-27 108 -81 16 -64 15 -417 -2 -439 -11 -16 -40 -18 -317 -18 -281 0 -306 2
-318 18 -11 14 -13 64 -10 228 4 262 10 277 116 291 40 5 52 10 52 24 0 16
-19 17 -245 16 -135 -1 -249 -2 -255 -4z"/>
</g>
</svg>
